<svg width="32" height="32" viewBox="0 0 32 32" xmlns="http://www.w3.org/2000/svg">
  <!-- GeniusMoving Favicon with correct colors -->
  <defs>
    <linearGradient id="smartGradient" x1="0%" y1="0%" x2="100%" y2="0%">
      <stop offset="0%" style="stop-color:#24B1FD;stop-opacity:1" />
      <stop offset="100%" style="stop-color:#306EBA;stop-opacity:1" />
    </linearGradient>
  </defs>
  
  <!-- Circle background -->
  <circle cx="16" cy="16" r="16" fill="url(#smartGradient)"/>
  
  <!-- S in the center -->
  <path d="M20,10 C18,8.6 14,8.6 12,10 C10,11.4 10,14 12,15.4 L14,16.8 C14.7,17.3 14.7,18.1 14,18.6 C12.8,19.5 10.7,19.5 9.5,18.6 L8,20.6 C10,22 13.5,22 15.5,20.6 C17.5,19.2 17.5,16.6 15.5,15.2 L13.5,13.8 C12.8,13.3 12.8,12.5 13.5,12 C14.3,11.4 15.7,11.4 16.5,12 L20,10 Z" fill="#ffffff"/>
</svg>
