<svg width="200" height="40" viewBox="0 0 200 40" xmlns="http://www.w3.org/2000/svg">
  <!-- GeniusMoving Logo Recreation with correct colors -->
  <defs>
    <linearGradient id="smartGradient" x1="0%" y1="0%" x2="100%" y2="0%">
      <stop offset="0%" style="stop-color:#24B1FD;stop-opacity:1" />
      <stop offset="100%" style="stop-color:#306EBA;stop-opacity:1" />
    </linearGradient>
  </defs>
  
  <!-- Icon part -->
  <path d="M15,5 C9.5,5 5,9.5 5,15 C5,20.5 9.5,25 15,25 C20.5,25 25,20.5 25,15 C25,9.5 20.5,5 15,5 Z M15,22 C11.1,22 8,18.9 8,15 C8,11.1 11.1,8 15,8 C18.9,8 22,11.1 22,15 C22,18.9 18.9,22 15,22 Z" fill="url(#smartGradient)"/>
  
  <!-- S in the center -->
  <path d="M16.5,11 C15.7,10.4 14.3,10.4 13.5,11 C12.8,11.5 12.8,12.3 13.5,12.8 L15,13.8 C17,15.2 17,17.8 15,19.2 C13,20.6 9.5,20.6 7.5,19.2 L9,17.2 C10.2,18.1 12.3,18.1 13.5,17.2 C14.2,16.7 14.2,15.9 13.5,15.4 L12,14.4 C10,13 10,10.4 12,9 C14,7.6 17.5,7.6 19.5,9 L16.5,11 Z" fill="#ffffff"/>
  
  <!-- Text part -->
  <text x="35" y="20" font-family="Arial, sans-serif" font-weight="bold" font-size="16" fill="#306EBA">Genius</text>
  <text x="90" y="20" font-family="Arial, sans-serif" font-weight="bold" font-size="16" fill="#24B1FD">Moving</text>
</svg>
